<?xml version="1.0" ?><svg id="Layer_1" style="enable-background:new 0 0 24 24;" version="1.1" viewBox="0 0 24 24" xml:space="preserve" xmlns="http://www.w3.org/2000/svg" xmlns:xlink="http://www.w3.org/1999/xlink"><style type="text/css">
	.st0{fill:#1E232D;}
</style><path class="st0" d="M8,4.2V15c-0.8-0.6-1.9-1-3-1c-2.8,0-5,2.2-5,5s2.2,5,5,5s5-2.2,5-5v-8.2l10-2.1v-2L10,8.8v-3l12-2.6V14  c-0.8-0.6-1.9-1-3-1c-2.8,0-5,2.2-5,5s2.2,5,5,5s5-2.2,5-5V0.8L8,4.2z M5,22c-1.7,0-3-1.3-3-3s1.3-3,3-3s3,1.3,3,3S6.7,22,5,22z   M19,21c-1.7,0-3-1.3-3-3s1.3-3,3-3s3,1.3,3,3S20.7,21,19,21z"/></svg>