<?xml version="1.0" ?><!DOCTYPE svg  PUBLIC '-//W3C//DTD SVG 1.1//EN'  'http://www.w3.org/Graphics/SVG/1.1/DTD/svg11.dtd'><svg enable-background="new 0 0 512 512" height="512px" id="Layer_1" version="1.1" viewBox="0 0 512 512" width="512px" xml:space="preserve" xmlns="http://www.w3.org/2000/svg" xmlns:xlink="http://www.w3.org/1999/xlink"><g><path d="M108.633,398.621c16.165,0,39.93-7.024,61.342-40.489c10.746-16.795,19.869-38.666,27.313-65.377   c5.506,10.561,16.554,17.793,29.265,17.793c14.711,0,27.2-9.682,31.439-23.007c4.239,13.325,16.729,23.007,31.439,23.007   c10.864,0,20.516-5.282,26.529-13.41c7.209,24.729,15.912,45.127,26.064,60.995c21.412,33.466,45.177,40.489,61.343,40.488   c26.784-0.002,49.686-18.989,58.465-37.745c8.51-18.181,7.486-49.288-3.043-92.459c-6.564-26.915-14.709-49.865-17.074-56.33   c0.058-1.143,0.089-2.222,0.089-3.248c0-25.3-13.104-48.198-34.549-61.041v-25.42c0-4.971-4.029-9-9-9h-55.322   c-4.971,0-9,4.029-9,9v20.277H178.066v-20.277c0-4.971-4.029-9-9-9h-55.322c-4.971,0-9,4.029-9,9v25.42   C83.3,160.642,70.195,183.54,70.195,208.84c0,1.025,0.031,2.105,0.089,3.248c-2.365,6.464-10.51,29.415-17.074,56.33   c-10.529,43.171-11.553,74.278-3.043,92.459C58.947,379.633,81.849,398.621,108.633,398.621z M226.553,292.548   c-8.264,0-14.986-6.723-14.986-14.986s6.723-14.986,14.986-14.986s14.986,6.723,14.986,14.986S234.816,292.548,226.553,292.548z    M289.432,292.548c-8.264,0-14.986-6.723-14.986-14.986s6.723-14.986,14.986-14.986s14.986,6.723,14.986,14.986   S297.695,292.548,289.432,292.548z M289.432,244.575c-14.711,0-27.2,9.682-31.439,23.007   c-4.239-13.325-16.729-23.007-31.439-23.007c-7.401,0-14.241,2.451-19.751,6.583c2.146-11.534,4.063-23.703,5.739-36.516   c0.105-0.803,0.088-1.606-0.021-2.394c0.063-1.204,0.097-2.335,0.097-3.409c0-18.277-6.845-35.297-18.725-48.184h124.215   c-11.88,12.886-18.725,29.906-18.725,48.184c0,1.074,0.034,2.206,0.097,3.409c-0.108,0.787-0.126,1.59-0.021,2.394   c1.54,11.766,3.281,22.992,5.216,33.68C300.112,245.935,294.929,244.575,289.432,244.575z M445.53,353.245   c-6.212,13.271-23.1,27.375-42.163,27.376c-16.779,0.001-54.579-12.449-77.177-116.233c0.179,0.143,0.364,0.276,0.544,0.418   c0.354,0.277,0.71,0.55,1.067,0.82c0.475,0.358,0.952,0.711,1.436,1.058c0.367,0.264,0.736,0.525,1.109,0.782   c0.49,0.338,0.986,0.668,1.485,0.993c0.376,0.246,0.751,0.492,1.132,0.731c0.517,0.324,1.042,0.637,1.567,0.948   c0.372,0.22,0.742,0.444,1.119,0.658c0.572,0.325,1.154,0.635,1.735,0.944c0.341,0.182,0.677,0.37,1.02,0.545   c0.798,0.408,1.606,0.798,2.42,1.176c0.181,0.083,0.358,0.17,0.539,0.253c0.897,0.408,1.806,0.798,2.723,1.169   c0.35,0.142,0.705,0.27,1.058,0.406c0.629,0.242,1.257,0.485,1.894,0.71c0.409,0.146,0.823,0.277,1.236,0.415   c0.59,0.197,1.181,0.393,1.777,0.574c0.436,0.133,0.875,0.255,1.313,0.38c0.585,0.165,1.17,0.326,1.76,0.478   c0.449,0.114,0.9,0.223,1.354,0.329c0.592,0.139,1.186,0.271,1.783,0.394c0.453,0.095,0.907,0.186,1.364,0.271   c0.61,0.114,1.225,0.218,1.841,0.315c0.447,0.071,0.895,0.145,1.344,0.207c0.646,0.09,1.296,0.165,1.946,0.237   c0.427,0.048,0.851,0.101,1.279,0.141c0.722,0.067,1.448,0.114,2.175,0.159c0.363,0.022,0.724,0.055,1.088,0.071   c1.093,0.051,2.19,0.08,3.295,0.08c1.036,0,2.066-0.03,3.093-0.075c0.291-0.013,0.58-0.029,0.87-0.046   c0.807-0.045,1.61-0.104,2.41-0.176c0.24-0.022,0.481-0.039,0.721-0.063c1.006-0.102,2.005-0.223,2.998-0.366   c0.21-0.03,0.418-0.066,0.627-0.099c0.806-0.124,1.607-0.261,2.405-0.412c0.284-0.054,0.568-0.107,0.851-0.165   c0.893-0.18,1.78-0.374,2.66-0.588c0.093-0.022,0.188-0.041,0.28-0.063c0.966-0.239,1.923-0.503,2.874-0.78   c0.261-0.076,0.52-0.157,0.778-0.236c0.74-0.226,1.476-0.463,2.206-0.712c0.24-0.082,0.482-0.161,0.722-0.245   c0.926-0.327,1.845-0.67,2.753-1.034c0.158-0.063,0.313-0.132,0.471-0.196c0.765-0.313,1.521-0.639,2.273-0.977   c0.261-0.117,0.521-0.235,0.779-0.356c0.756-0.351,1.505-0.714,2.247-1.091c0.14-0.071,0.281-0.138,0.421-0.21   c0.864-0.446,1.718-0.913,2.562-1.394c0.225-0.127,0.446-0.26,0.669-0.39c0.653-0.382,1.301-0.773,1.942-1.175   c0.227-0.143,0.454-0.283,0.68-0.428c0.815-0.523,1.622-1.06,2.415-1.615c0.1-0.07,0.196-0.144,0.296-0.214   c0.7-0.496,1.389-1.006,2.07-1.526c0.229-0.174,0.455-0.351,0.681-0.527c0.617-0.482,1.225-0.975,1.825-1.477   c0.158-0.133,0.319-0.261,0.476-0.395c0.732-0.623,1.451-1.262,2.157-1.914c0.182-0.166,0.357-0.338,0.537-0.507   c0.549-0.517,1.089-1.041,1.621-1.574c0.198-0.199,0.397-0.397,0.594-0.6c0.675-0.692,1.34-1.394,1.986-2.112   c0.034-0.037,0.065-0.076,0.099-0.113c0.616-0.688,1.216-1.391,1.805-2.103c0.184-0.222,0.364-0.445,0.545-0.669   c0.477-0.589,0.942-1.185,1.4-1.79c0.145-0.191,0.292-0.379,0.435-0.571c0.572-0.771,1.13-1.555,1.671-2.35   c0.129-0.189,0.253-0.382,0.38-0.573c0.425-0.637,0.84-1.281,1.245-1.932c0.154-0.249,0.308-0.497,0.459-0.747   c0.461-0.761,0.909-1.53,1.342-2.309c0.044-0.08,0.092-0.158,0.136-0.239c0.008-0.013,0.016-0.025,0.022-0.039   C444.029,278.478,456.108,330.646,445.53,353.245z M423.805,208.84c0,1.187-0.053,2.449-0.165,3.973   c-2.037,27.61-25.338,49.238-53.046,49.238c-4.329,0-8.551-0.528-12.601-1.524c-1.62-0.398-3.213-0.872-4.773-1.417   c-1.562-0.544-3.09-1.16-4.584-1.843c-17.175-7.855-29.624-24.609-31.088-44.456c-0.112-1.522-0.165-2.784-0.165-3.971   c0-20.333,11.326-38.596,29.559-47.665c7.399-3.68,15.357-5.546,23.652-5.546c8.297,0,16.255,1.866,23.654,5.546   C412.479,170.244,423.805,188.508,423.805,208.84z M351.934,131.379h37.322v8.719c-0.063-0.018-0.128-0.032-0.192-0.049   c-0.545-0.146-1.093-0.284-1.642-0.417c-0.165-0.041-0.329-0.085-0.495-0.124c-0.71-0.167-1.424-0.323-2.14-0.468   c-0.213-0.043-0.426-0.08-0.639-0.121c-0.51-0.098-1.021-0.194-1.532-0.282c-0.277-0.047-0.556-0.088-0.833-0.132   c-0.453-0.071-0.907-0.141-1.363-0.204c-0.295-0.041-0.59-0.078-0.885-0.114c-0.445-0.056-0.891-0.107-1.337-0.154   c-0.298-0.032-0.596-0.062-0.894-0.09c-0.457-0.042-0.915-0.079-1.373-0.112c-0.285-0.021-0.571-0.043-0.857-0.061   c-0.5-0.031-1.002-0.053-1.505-0.074c-0.244-0.01-0.487-0.023-0.731-0.031c-0.746-0.023-1.494-0.037-2.244-0.037   s-1.498,0.014-2.244,0.037c-0.244,0.007-0.487,0.021-0.731,0.031c-0.502,0.021-1.004,0.043-1.505,0.074   c-0.285,0.018-0.57,0.04-0.856,0.061c-0.458,0.034-0.916,0.07-1.373,0.112c-0.298,0.028-0.596,0.058-0.893,0.09   c-0.447,0.047-0.893,0.099-1.338,0.154c-0.295,0.037-0.59,0.074-0.884,0.114c-0.456,0.063-0.912,0.132-1.366,0.204   c-0.276,0.043-0.554,0.085-0.829,0.132c-0.515,0.087-1.027,0.184-1.54,0.283c-0.21,0.04-0.421,0.076-0.63,0.119   c-0.718,0.146-1.432,0.301-2.144,0.469c-0.161,0.038-0.321,0.082-0.481,0.121c-0.554,0.134-1.105,0.272-1.655,0.42   c-0.063,0.017-0.127,0.031-0.19,0.048V131.379z M122.744,131.379h37.322v8.719c-0.063-0.017-0.127-0.031-0.19-0.048   c-0.55-0.148-1.102-0.286-1.655-0.42c-0.16-0.039-0.32-0.083-0.481-0.121c-0.712-0.167-1.426-0.323-2.144-0.469   c-0.209-0.042-0.42-0.079-0.63-0.119c-0.513-0.099-1.025-0.196-1.54-0.283c-0.275-0.047-0.553-0.088-0.829-0.132   c-0.454-0.072-0.91-0.141-1.366-0.204c-0.294-0.041-0.589-0.078-0.884-0.114c-0.445-0.056-0.891-0.107-1.338-0.154   c-0.297-0.032-0.595-0.062-0.893-0.09c-0.457-0.042-0.915-0.079-1.373-0.112c-0.286-0.021-0.571-0.043-0.856-0.061   c-0.501-0.031-1.003-0.053-1.505-0.074c-0.244-0.01-0.487-0.023-0.731-0.031c-0.746-0.023-1.494-0.037-2.244-0.037   s-1.498,0.014-2.244,0.037c-0.244,0.007-0.487,0.021-0.731,0.031c-0.503,0.021-1.005,0.043-1.505,0.074   c-0.286,0.018-0.572,0.04-0.857,0.061c-0.458,0.034-0.916,0.07-1.373,0.112c-0.298,0.028-0.596,0.058-0.894,0.09   c-0.446,0.047-0.892,0.099-1.337,0.154c-0.295,0.037-0.59,0.074-0.885,0.114c-0.456,0.063-0.91,0.132-1.363,0.204   c-0.277,0.044-0.556,0.085-0.833,0.132c-0.512,0.087-1.022,0.184-1.532,0.282c-0.213,0.041-0.426,0.078-0.639,0.121   c-0.716,0.145-1.43,0.301-2.14,0.468c-0.166,0.039-0.33,0.083-0.495,0.124c-0.549,0.133-1.097,0.271-1.642,0.417   c-0.064,0.017-0.129,0.031-0.192,0.049V131.379z M117.752,161.175c7.399-3.68,15.357-5.546,23.654-5.546   c8.295,0,16.253,1.866,23.652,5.546c18.232,9.068,29.559,27.332,29.559,47.665c0,1.187-0.053,2.449-0.165,3.973   c-2.037,27.61-25.338,49.238-53.046,49.238c-4.329,0-8.551-0.528-12.601-1.524c-1.62-0.398-3.213-0.872-4.773-1.417   c-1.562-0.544-3.09-1.16-4.584-1.843c-17.175-7.855-29.624-24.609-31.088-44.456c-0.112-1.522-0.165-2.784-0.165-3.971   C88.195,188.508,99.521,170.244,117.752,161.175z M78.918,242.877c0.008,0.015,0.017,0.029,0.025,0.044   c0.038,0.069,0.079,0.137,0.117,0.207c0.438,0.792,0.895,1.572,1.362,2.344c0.147,0.244,0.298,0.486,0.448,0.729   c0.41,0.66,0.831,1.313,1.262,1.958c0.122,0.184,0.24,0.369,0.364,0.551c0.544,0.799,1.104,1.586,1.68,2.362   c0.138,0.186,0.281,0.368,0.421,0.553c0.463,0.611,0.935,1.215,1.416,1.811c0.178,0.219,0.354,0.438,0.534,0.656   c0.596,0.72,1.202,1.431,1.825,2.126c0.026,0.031,0.053,0.063,0.08,0.093c0.648,0.721,1.315,1.424,1.991,2.118   c0.194,0.199,0.392,0.396,0.588,0.592c0.535,0.537,1.079,1.066,1.632,1.586c0.176,0.166,0.35,0.334,0.526,0.497   c0.709,0.654,1.43,1.295,2.164,1.92c0.152,0.13,0.31,0.255,0.464,0.384c0.604,0.506,1.217,1.002,1.838,1.487   c0.224,0.175,0.447,0.35,0.674,0.522c0.686,0.523,1.379,1.036,2.083,1.535c0.095,0.067,0.188,0.138,0.284,0.205   c0.794,0.557,1.602,1.094,2.418,1.618c0.225,0.145,0.451,0.283,0.677,0.425c0.643,0.403,1.292,0.796,1.947,1.179   c0.222,0.129,0.441,0.26,0.664,0.387c0.846,0.481,1.699,0.948,2.565,1.396c0.137,0.07,0.276,0.137,0.414,0.206   c0.744,0.378,1.496,0.743,2.254,1.095c0.258,0.12,0.517,0.238,0.775,0.354c0.752,0.339,1.511,0.665,2.275,0.978   c0.157,0.064,0.313,0.134,0.471,0.196c0.909,0.364,1.828,0.707,2.755,1.034c0.237,0.084,0.478,0.163,0.717,0.244   c0.731,0.25,1.468,0.487,2.209,0.713c0.26,0.079,0.518,0.16,0.778,0.236c0.951,0.278,1.908,0.541,2.874,0.78   c0.093,0.022,0.188,0.041,0.28,0.063c0.88,0.214,1.768,0.408,2.66,0.588c0.282,0.058,0.566,0.111,0.851,0.165   c0.798,0.151,1.6,0.288,2.405,0.412c0.209,0.032,0.417,0.068,0.627,0.099c0.993,0.144,1.992,0.265,2.998,0.366   c0.239,0.024,0.48,0.041,0.721,0.063c0.8,0.072,1.604,0.131,2.41,0.176c0.29,0.017,0.579,0.033,0.87,0.046   c1.026,0.045,2.057,0.075,3.093,0.075c1.104,0,2.202-0.029,3.295-0.08c0.364-0.017,0.725-0.049,1.088-0.071   c0.727-0.045,1.453-0.092,2.174-0.159c0.43-0.04,0.854-0.093,1.281-0.141c0.65-0.072,1.3-0.147,1.944-0.237   c0.451-0.063,0.898-0.136,1.346-0.207c0.615-0.098,1.229-0.201,1.839-0.314c0.458-0.086,0.913-0.177,1.367-0.271   c0.596-0.124,1.188-0.255,1.779-0.394c0.454-0.105,0.906-0.215,1.357-0.33c0.587-0.15,1.171-0.311,1.753-0.476   c0.441-0.125,0.884-0.249,1.321-0.382c0.592-0.181,1.178-0.374,1.763-0.569c0.418-0.139,0.838-0.273,1.253-0.42   c0.627-0.223,1.247-0.462,1.866-0.701c0.361-0.14,0.726-0.271,1.084-0.415c0.884-0.358,1.757-0.735,2.623-1.127   c0.24-0.109,0.479-0.223,0.718-0.335c0.784-0.365,1.563-0.739,2.331-1.132c0.355-0.182,0.704-0.377,1.057-0.564   c0.568-0.303,1.138-0.605,1.697-0.924c0.386-0.219,0.764-0.448,1.145-0.674c0.517-0.307,1.033-0.613,1.542-0.933   c0.387-0.242,0.769-0.493,1.15-0.742c0.492-0.322,0.982-0.647,1.466-0.981c0.378-0.261,0.753-0.525,1.126-0.793   c0.478-0.344,0.95-0.692,1.42-1.047c0.361-0.273,0.722-0.548,1.078-0.828c0.179-0.141,0.363-0.273,0.54-0.415   c-22.598,103.782-60.397,116.233-77.177,116.233c-19.063,0-35.951-14.104-42.163-27.376   C55.892,330.646,67.971,278.478,78.918,242.877z"/><path d="M244.359,190.962h-13c-4.971,0-9,4.029-9,9s4.029,9,9,9h13c4.971,0,9-4.029,9-9S249.33,190.962,244.359,190.962z"/><path d="M279.563,190.962h-13c-4.971,0-9,4.029-9,9s4.029,9,9,9h13c4.971,0,9-4.029,9-9S284.533,190.962,279.563,190.962z"/><path d="M370.594,197.825c8.384,0,15.205-6.821,15.205-15.205c0-8.384-6.821-15.205-15.205-15.205s-15.205,6.821-15.205,15.205   C355.389,191.004,362.21,197.825,370.594,197.825z M370.594,179.825c1.541,0,2.795,1.254,2.795,2.795   c0,1.541-1.254,2.795-2.795,2.795s-2.795-1.254-2.795-2.795C367.799,181.079,369.053,179.825,370.594,179.825z"/><path d="M370.594,219.854c-8.384,0-15.205,6.821-15.205,15.205s6.821,15.205,15.205,15.205s15.205-6.821,15.205-15.205   S378.978,219.854,370.594,219.854z M370.594,237.854c-1.541,0-2.795-1.254-2.795-2.795s1.254-2.795,2.795-2.795   s2.795,1.254,2.795,2.795S372.135,237.854,370.594,237.854z"/><path d="M381.609,208.84c0,8.384,6.821,15.205,15.205,15.205s15.205-6.821,15.205-15.205s-6.821-15.205-15.205-15.205   S381.609,200.456,381.609,208.84z M396.814,206.045c1.541,0,2.795,1.254,2.795,2.795s-1.254,2.795-2.795,2.795   s-2.795-1.254-2.795-2.795S395.273,206.045,396.814,206.045z"/><path d="M344.375,193.635c-8.384,0-15.205,6.821-15.205,15.205s6.821,15.205,15.205,15.205s15.205-6.821,15.205-15.205   S352.759,193.635,344.375,193.635z M344.375,211.635c-1.541,0-2.795-1.254-2.795-2.795s1.254-2.795,2.795-2.795   s2.795,1.254,2.795,2.795S345.916,211.635,344.375,211.635z"/><path d="M129.495,195.617l7.162,4.686c1.497,0.98,3.213,1.469,4.927,1.469c1.784,0,3.568-0.53,5.104-1.587l6.807-4.686   c2.439-1.679,3.896-4.451,3.896-7.413v-11.67c0-4.971-4.029-9-9-9h-13.969c-4.971,0-9,4.029-9,9v11.67   C125.422,191.122,126.953,193.954,129.495,195.617z"/><path d="M153.318,222.063l-7.16-4.686c-3.057-2-7.02-1.955-10.03,0.117l-6.809,4.686c-2.439,1.679-3.897,4.452-3.897,7.414v11.67   c0,4.971,4.029,9,9,9h13.969c4.971,0,9-4.029,9-9v-11.67C157.391,226.558,155.859,223.726,153.318,222.063z"/><path d="M154.628,196.929l-4.684,7.161c-1.999,3.057-1.953,7.018,0.117,10.027l4.684,6.809c1.68,2.441,4.452,3.899,7.415,3.899   h11.672c4.971,0,9-4.029,9-9v-13.97c0-4.971-4.029-9-9-9H162.16C159.123,192.855,156.291,194.387,154.628,196.929z"/><path d="M108.982,224.825h11.668c3.036,0,5.867-1.531,7.53-4.071l4.688-7.161c2.002-3.058,1.955-7.022-0.117-10.033l-4.688-6.809   c-1.68-2.439-4.451-3.896-7.413-3.896h-11.668c-4.971,0-9,4.029-9,9v13.97C99.982,220.795,104.012,224.825,108.982,224.825z"/></g></svg>